<svg xmlns="http://www.w3.org/2000/svg" xmlns:xlink="http://www.w3.org/1999/xlink" width="241" height="48" style="fill:#FFFFFF">
    <path d="M107.255.5C95.308.5 85.483 6.5198 85.483 17.6987c0 4.3384 2.1907 9.3324 3.9585 12.1732v1.902c0 2.507 1.1144 4.346 2.2577 5.3464.7.6114 1.0002.6223 1.4728.808.5098 1.3355 3.9964 9.9313 13.8625 10.0625.0736.006.1474.008.2212.0057s.1544.0007.2314-.0057c9.857-.1387 13.34-8.7276 13.85-10.0625.4725-.1864.7738-.196 1.4728-.808 1.1433-1.0004 2.2576-2.8393 2.2576-5.3464v-1.0476c1.8936-2.3386 3.9586-7.3067 3.9586-13.0275 0-6.0506-2.8618-10.5536-7.35-13.4373L110.6183 16.937c4.0614 4.6802 8.0352 10.7398 10.4916 13.5958v1.24c0 1.4515-.47 1.9846-.9084 2.3697s-.7577.4607-.7577.4607l-1.0554.262-.344 1.0282s-2.6083 8.15-10.7893 8.15-10.7893-8.15-10.7893-8.15l-.344-1.0282-1.0554-.262s-.3177-.0745-.7577-.4607-.9084-.9182-.9084-2.3697v-1.438c1.3052-1.3554 3.113-3.3255 5.242-5.698l19.3983-22.228C114.852 1.153 111.172.5 107.255.5zm.5915 19.6148l-3.5758 4.0977 6.7457.0408zm-2.5706 12.0534a1.979 1.979 0 0 0-1.8633 1.322c-1.8944 3.2994-5.7707 1.7348-6.0538.6572 0 0 .5347 3.9585 5.037 3.9585 2.8963 0 4.6195-1.5067 4.8205-3.5603a2.044 2.044 0 0 0 .0408-.3988 1.979 1.979 0 0 0-1.9793-1.9793zm1.9792 1.9792c.0014.1273.015.2542.0408.3788.192 2.0635 1.9152 3.5797 4.8206 3.5797 4.5028 0 5.037-3.9585 5.037-3.9585-.283 1.0776-4.1595 2.6422-6.0538-.6572a1.979 1.979 0 0 0-1.8634-1.322c-1.093 0-1.9792.886-1.9792 1.9792zm-88.515-8.354q-1.08 1.32-3.16 2.12-2.04.76-4.8.76H6.14v11.12H.5v-27.92h10.28q4.84 0 7.44 2.44 2.64 2.4 2.64 5.68 0 3.28-2.12 5.8zm-12.6-1.44h4.64q2.12 0 3.24-1.08 1.12-1.12 1.12-3 0-1.88-1.12-2.96-1.12-1.12-3.24-1.12H6.14zm37.2493-12.56h5.64v28h-5.64l-12.64-19.36v19.36h-5.64v-28h5.64l12.64 19.36z"/>
    <use xlink:href="#B"/>
    <use xlink:href="#B" x="78.9063"/>
    <use xlink:href="#C"/>
    <path d="M198.718 28.6735v11.12h-5.64v-27.92h10.28q4.84 0 7.44 2.44 2.64 2.4 2.64 5.96 0 2.64-1.6 4.92-1.6 2.28-5.04 3.12l7.12 11.48h-6.68l-6.68-11.12zm0-12.48v8.16h4.64q2.12 0 3.24-1.08 1.12-1.12 1.12-3 0-1.88-1.12-2.96-1.12-1.12-3.24-1.12z"/>
    <use xlink:href="#C" x="54.2969"/>
    <defs >
        <path id="B" d="M57.5912 35.9935q-4.12-4.04-4.12-10.24 0-6.2 4.12-10.24 4.16-4.04 10.16-4.04 4.56 0 8.08 2.32 3.56 2.32 5.08 6.52h-6.76q-1.88-3.68-6.4-3.68-3.8 0-6.2 2.52-2.36 2.48-2.36 6.64 0 4.12 2.36 6.64 2.4 2.48 5.84 2.48 3.48 0 5.44-1.68 2-1.72 2.48-4.6h-9.28v-4.28h15.32v4.28q-.72 4.56-4.48 8-3.76 3.4-9.48 3.4-5.68 0-9.8-4.04z"/>
        <path id="C" d="M164.6387 29.0735v-17.2h5.64v17.2q0 2.88 1.44 4.36 1.48 1.48 4.2 1.48 2.72 0 4.2-1.48 1.48-1.48 1.48-4.36v-17.2h5.6v17.2q0 5.28-3.32 8.16-3.32 2.84-8.08 2.84-4.76 0-7.96-2.84-3.2-2.84-3.2-8.16z"/>
    </defs>
</svg>